<?xml version="1.0" encoding="UTF-8"?> <svg xmlns="http://www.w3.org/2000/svg" width="421.003" height="172" viewBox="0 0 421.003 172"><g id="Group_2003" data-name="Group 2003" transform="translate(13836 2526)"><path id="Path_262" data-name="Path 262" d="M1.408,114.284a.642.642,0,0,1-.619-.884l6.7-18.872a1.373,1.373,0,0,1,1.239-.883H10.76a1.449,1.449,0,0,1,1.27.883L18.755,113.4a.643.643,0,0,1-.619.884H15.687a1.339,1.339,0,0,1-1.239-.884l-1.329-4.1H6.305l-1.3,4.07a1.256,1.256,0,0,1-1.18.913Zm5.87-8.169h4.839L9.669,98.45Z" transform="translate(-13835.821 -2503.477)" fill="#fff"></path><path id="Path_263" data-name="Path 263" d="M16.8,108.175V97.914a.949.949,0,0,1,.944-.943h2.034a.931.931,0,0,1,.944.943v9.908c0,1.887.442,2.713,2.124,2.713a4.087,4.087,0,0,0,2.922-1.562V97.914a.931.931,0,0,1,.943-.943h2.037a.949.949,0,0,1,.943.943v14.624a.949.949,0,0,1-.943.945H27.122a1.1,1.1,0,0,1-1.061-.945l-.031-.618a5.7,5.7,0,0,1-4.129,1.858c-3.865,0-5.1-2.034-5.1-5.6" transform="translate(-13831.95 -2502.677)" fill="#fff"></path><path id="Path_264" data-name="Path 264" d="M36.2,110.951c1.741,0,2.567-.855,2.567-2.034,0-1.534-1.711-1.975-4.041-2.359-2.656-.47-4.986-1.682-4.986-4.688v-.444c0-2.8,2.064-4.716,6.225-4.716,4.335,0,6.224,2.5,6.224,4.749a.774.774,0,0,1-.825.824H39.388c-.532,0-.855-.236-.855-.765,0-.768-.71-1.888-2.567-1.888-1.623,0-2.3.884-2.3,2.036,0,1.386,1.21,1.826,3.452,2.24,2.892.531,5.517,1.533,5.517,4.6v.559c0,2.771-2.271,4.806-6.431,4.806-4.247,0-6.666-2.27-6.666-4.777a.774.774,0,0,1,.825-.826h2.007c.53,0,.884.238.884.768,0,.856,1.062,1.917,2.95,1.917" transform="translate(-13828.879 -2502.74)" fill="#fff"></path><path id="Path_265" data-name="Path 265" d="M42.838,108.712v-7.993h-.649a.926.926,0,0,1-.916-.944V98.714a.925.925,0,0,1,.916-.943h.827l.294-3.186a1.08,1.08,0,0,1,1.062-.943h1.445a.93.93,0,0,1,.945.943v3.186h3.3a.931.931,0,0,1,.945.943v1.061a.932.932,0,0,1-.945.944h-3.3v7.962c0,1.948.737,2.832,2.42,2.832a8.879,8.879,0,0,0,1.267-.091.721.721,0,0,1,.855.739v1.267a1.1,1.1,0,0,1-.943,1.062,13.262,13.262,0,0,1-1.858.118c-3.895,0-5.664-2.034-5.664-5.9" transform="translate(-13826.048 -2503.477)" fill="#fff"></path><path id="Path_266" data-name="Path 266" d="M59.154,97.469v1.919a.7.7,0,0,1-.767.736,4.2,4.2,0,0,0-3.423,1.858V112.6a.93.93,0,0,1-.943.944H51.984a.949.949,0,0,1-.943-.944V97.97a.949.949,0,0,1,.943-.942H53.49a1.113,1.113,0,0,1,1.092.913l.118,1a5.133,5.133,0,0,1,3.716-2.212.669.669,0,0,1,.738.737" transform="translate(-13823.693 -2502.734)" fill="#fff"></path><path id="Path_267" data-name="Path 267" d="M59.311,107.879V102.69c0-3.894,1.505-5.957,5.37-5.957A5.925,5.925,0,0,1,68.87,98.59l.089-.649a1.193,1.193,0,0,1,1.121-.913h1.534a.925.925,0,0,1,.913.943V112.6a.925.925,0,0,1-.913.945H70.049a1.109,1.109,0,0,1-1.09-.914l-.089-.649a5.978,5.978,0,0,1-4.189,1.858c-3.865,0-5.37-2.064-5.37-5.957m3.924-4.9v4.6c0,2.093.619,3.008,2.331,3.008a4.335,4.335,0,0,0,3.039-1.563v-7.49a4.4,4.4,0,0,0-3.039-1.563c-1.712,0-2.331.914-2.331,3.007" transform="translate(-13821.699 -2502.734)" fill="#fff"></path><path id="Path_268" data-name="Path 268" d="M76.473,114.776c-3.157,0-3.687-1.472-3.687-4.157V93.4a.951.951,0,0,1,.943-.945h2.037a.933.933,0,0,1,.943.945v17.072c0,.944.237,1.208,1,1.208.56,0,.8.267.8.737v1.3c0,.826-.973,1.061-2.035,1.061" transform="translate(-13818.45 -2503.763)" fill="#fff"></path><path id="Path_269" data-name="Path 269" d="M80.185,114.57a.95.95,0,0,1-.944-.945V100.976l-.5-.029a.8.8,0,0,1-.8-.887V98.912a.821.821,0,0,1,.856-.855H82.22a.931.931,0,0,1,.944.943v14.624a.932.932,0,0,1-.944.945Zm.855-18.107c-1.327,0-2.213-.531-2.213-1.975,0-1.475.886-2.034,2.213-2.034,1.386,0,2.3.559,2.3,2.034,0,1.444-.915,1.975-2.3,1.975" transform="translate(-13817.207 -2503.763)" fill="#fff"></path><path id="Path_270" data-name="Path 270" d="M84.9,107.879V102.69c0-3.894,1.505-5.957,5.37-5.957a5.927,5.927,0,0,1,4.189,1.857l.089-.649a1.193,1.193,0,0,1,1.121-.913h1.534a.925.925,0,0,1,.913.943V112.6a.925.925,0,0,1-.913.945H95.643a1.109,1.109,0,0,1-1.09-.914l-.089-.649a5.978,5.978,0,0,1-4.189,1.858c-3.865,0-5.37-2.064-5.37-5.957m3.924-4.9v4.6c0,2.093.619,3.008,2.331,3.008a4.335,4.335,0,0,0,3.039-1.563v-7.49a4.4,4.4,0,0,0-3.039-1.563c-1.712,0-2.331.914-2.331,3.007" transform="translate(-13815.527 -2502.734)" fill="#fff"></path><path id="Path_271" data-name="Path 271" d="M99.324,113.541a.951.951,0,0,1-.944-.945V97.971a.95.95,0,0,1,.944-.943h1.594a1.078,1.078,0,0,1,1.061.943l.06.62a5.615,5.615,0,0,1,4.071-1.858c3.865,0,5.281,2.034,5.281,5.6V112.6a.949.949,0,0,1-.943.945h-2.037a.932.932,0,0,1-.943-.945V102.69c0-1.887-.56-2.713-2.271-2.713a4.084,4.084,0,0,0-2.892,1.562V112.6a.932.932,0,0,1-.945.945Z" transform="translate(-13812.278 -2502.734)" fill="#fff"></path><path id="Path_272" data-name="Path 272" d="M117.641,114.284a.643.643,0,0,1-.619-.884l6.7-18.872a1.371,1.371,0,0,1,1.239-.883h2.035a1.449,1.449,0,0,1,1.27.883l6.724,18.872a.642.642,0,0,1-.618.884h-2.45a1.341,1.341,0,0,1-1.239-.884l-1.328-4.1h-6.814l-1.3,4.07a1.254,1.254,0,0,1-1.179.913Zm5.872-8.169h4.839L125.9,98.45Z" transform="translate(-13807.796 -2503.477)" fill="#fff"></path><path id="Path_273" data-name="Path 273" d="M133.03,108.175V97.914a.949.949,0,0,1,.944-.943h2.034a.931.931,0,0,1,.944.943v9.908c0,1.887.442,2.713,2.124,2.713A4.086,4.086,0,0,0,142,108.973V97.914a.931.931,0,0,1,.943-.943h2.037a.949.949,0,0,1,.943.943v14.624a.949.949,0,0,1-.943.945h-1.623a1.1,1.1,0,0,1-1.061-.945l-.031-.618a5.7,5.7,0,0,1-4.129,1.858c-3.865,0-5.1-2.034-5.1-5.6" transform="translate(-13803.924 -2502.677)" fill="#fff"></path><path id="Path_274" data-name="Path 274" d="M146.619,108.712v-7.993h-.649a.926.926,0,0,1-.916-.944V98.714a.925.925,0,0,1,.916-.943h.827l.294-3.186a1.08,1.08,0,0,1,1.062-.943H149.6a.93.93,0,0,1,.945.943v3.186h3.3a.931.931,0,0,1,.945.943v1.061a.932.932,0,0,1-.945.944h-3.3v7.962c0,1.948.737,2.832,2.42,2.832a8.879,8.879,0,0,0,1.267-.091.72.72,0,0,1,.855.739v1.267a1.1,1.1,0,0,1-.943,1.062,13.262,13.262,0,0,1-1.858.118c-3.895,0-5.664-2.034-5.664-5.9" transform="translate(-13801.024 -2503.477)" fill="#fff"></path><path id="Path_275" data-name="Path 275" d="M154.679,107.613v-4.659c0-3.862,2.567-6.221,6.727-6.221,4.1,0,6.667,2.359,6.667,6.221v4.659c0,3.864-2.567,6.224-6.667,6.224-4.16,0-6.727-2.359-6.727-6.224m3.924-4.334v4.012c0,2.24,1,3.42,2.8,3.42,1.77,0,2.744-1.18,2.744-3.42v-4.012c0-2.24-.974-3.42-2.744-3.42-1.8,0-2.8,1.18-2.8,3.42" transform="translate(-13798.704 -2502.734)" fill="#fff"></path><path id="Path_276" data-name="Path 276" d="M169.1,113.541a.95.95,0,0,1-.944-.945V97.971a.95.95,0,0,1,.944-.943h1.594a1.078,1.078,0,0,1,1.061.943l.06.62a5.41,5.41,0,0,1,3.953-1.858c2.3,0,3.571.8,4.278,2.123a5.67,5.67,0,0,1,4.19-2.123c3.865,0,4.9,2.034,4.9,5.6V112.6a.931.931,0,0,1-.943.945H186.15a.931.931,0,0,1-.943-.945V102.69c0-1.887-.294-2.713-1.918-2.713a3.643,3.643,0,0,0-2.686,1.414,7.851,7.851,0,0,1,.059,1.238V112.6a.926.926,0,0,1-.915.945h-2.036a.949.949,0,0,1-.943-.945v-9.819c0-1.887-.325-2.8-1.947-2.8a3.725,3.725,0,0,0-2.744,1.562V112.6a.932.932,0,0,1-.944.945Z" transform="translate(-13795.455 -2502.734)" fill="#fff"></path><path id="Path_277" data-name="Path 277" d="M187.737,107.879V102.69c0-3.894,1.505-5.957,5.37-5.957A5.927,5.927,0,0,1,197.3,98.59l.089-.649a1.193,1.193,0,0,1,1.121-.913h1.534a.925.925,0,0,1,.913.943V112.6a.925.925,0,0,1-.913.945h-1.565a1.109,1.109,0,0,1-1.09-.914l-.089-.649a5.978,5.978,0,0,1-4.189,1.858c-3.865,0-5.37-2.064-5.37-5.957m3.924-4.9v4.6c0,2.093.619,3.008,2.331,3.008a4.336,4.336,0,0,0,3.04-1.563v-7.49a4.4,4.4,0,0,0-3.04-1.563c-1.711,0-2.331.914-2.331,3.007" transform="translate(-13790.732 -2502.734)" fill="#fff"></path><path id="Path_278" data-name="Path 278" d="M201.61,108.712v-7.993h-.649a.926.926,0,0,1-.916-.944V98.714a.925.925,0,0,1,.916-.943h.827l.294-3.186a1.08,1.08,0,0,1,1.062-.943h1.445a.93.93,0,0,1,.944.943v3.186h3.3a.931.931,0,0,1,.944.943v1.061a.932.932,0,0,1-.944.944h-3.3v7.962c0,1.948.737,2.832,2.42,2.832a8.881,8.881,0,0,0,1.267-.091.721.721,0,0,1,.855.739v1.267a1.1,1.1,0,0,1-.943,1.062,13.262,13.262,0,0,1-1.858.118c-3.895,0-5.664-2.034-5.664-5.9" transform="translate(-13787.765 -2503.477)" fill="#fff"></path><path id="Path_279" data-name="Path 279" d="M211.011,114.57a.95.95,0,0,1-.945-.945V100.976l-.5-.029a.8.8,0,0,1-.8-.887V98.912a.821.821,0,0,1,.856-.855h3.422a.931.931,0,0,1,.945.943v14.624a.932.932,0,0,1-.945.945Zm.855-18.107c-1.327,0-2.213-.531-2.213-1.975,0-1.475.886-2.034,2.213-2.034,1.386,0,2.3.559,2.3,2.034,0,1.444-.915,1.975-2.3,1.975" transform="translate(-13785.662 -2503.763)" fill="#fff"></path><path id="Path_280" data-name="Path 280" d="M215.66,107.613v-4.659c0-3.862,2.567-6.221,6.727-6.221,4.1,0,6.667,2.359,6.667,6.221v4.659c0,3.864-2.567,6.224-6.667,6.224-4.16,0-6.727-2.359-6.727-6.224m3.924-4.334v4.012c0,2.24,1,3.42,2.8,3.42,1.77,0,2.744-1.18,2.744-3.42v-4.012c0-2.24-.974-3.42-2.744-3.42-1.8,0-2.8,1.18-2.8,3.42" transform="translate(-13784 -2502.734)" fill="#fff"></path><path id="Path_281" data-name="Path 281" d="M230.078,113.541a.951.951,0,0,1-.945-.945V97.971a.95.95,0,0,1,.945-.943h1.594a1.078,1.078,0,0,1,1.061.943l.06.62a5.615,5.615,0,0,1,4.071-1.858c3.865,0,5.281,2.034,5.281,5.6V112.6a.949.949,0,0,1-.943.945h-2.037a.932.932,0,0,1-.943-.945V102.69c0-1.887-.56-2.713-2.271-2.713a4.084,4.084,0,0,0-2.892,1.562V112.6a.932.932,0,0,1-.945.945Z" transform="translate(-13780.751 -2502.734)" fill="#fff"></path><path id="Path_282" data-name="Path 282" d="M47.828,142.393a.931.931,0,0,1-.943-.945V122.695a.931.931,0,0,1,.943-.943h6.992c4.4,0,7.11,2.3,7.11,6.427v1.093c0,2.83-1.357,4.951-3.895,5.749l4.1,6.575a.545.545,0,0,1-.473.8H58.8a1.6,1.6,0,0,1-1.386-.826l-3.481-5.9h-2.95v5.778a.926.926,0,0,1-.915.945Zm3.157-10h3.835c1.947,0,3.01-1.093,3.01-3.481v-.383c0-2.388-1.062-3.42-3.01-3.42H50.986Z" transform="translate(-13824.695 -2496.717)" fill="#fff"></path><path id="Path_283" data-name="Path 283" d="M61.476,135.722v-4.659c0-3.862,2.567-6.221,6.727-6.221,4.1,0,6.667,2.359,6.667,6.221v4.659c0,3.864-2.567,6.224-6.667,6.224-4.16,0-6.727-2.359-6.727-6.224m3.924-4.334V135.4c0,2.24,1,3.42,2.8,3.42,1.77,0,2.744-1.18,2.744-3.42v-4.012c0-2.24-.974-3.42-2.744-3.42-1.8,0-2.8,1.18-2.8,3.42" transform="translate(-13821.177 -2495.974)" fill="#fff"></path><path id="Path_284" data-name="Path 284" d="M75.9,142.679a.95.95,0,0,1-.945-.945V121.507a.952.952,0,0,1,.945-.944h2.035a.933.933,0,0,1,.945.944v5.984a5.813,5.813,0,0,1,3.924-1.62c3.892,0,5.4,2.063,5.4,5.957v5.189c0,3.893-1.507,5.957-5.4,5.957a6.036,6.036,0,0,1-4.19-1.858l-.06.649a1.134,1.134,0,0,1-1.091.914Zm2.98-12v7.49a4.4,4.4,0,0,0,3.068,1.563c1.711,0,2.331-.916,2.331-3.009v-4.6c0-2.093-.619-3.007-2.331-3.007a4.4,4.4,0,0,0-3.068,1.563" transform="translate(-13817.928 -2497.003)" fill="#fff"></path><path id="Path_285" data-name="Path 285" d="M88.211,135.722v-4.659c0-3.862,2.567-6.221,6.728-6.221,4.1,0,6.666,2.359,6.666,6.221v4.659c0,3.864-2.567,6.224-6.666,6.224-4.162,0-6.728-2.359-6.728-6.224m3.924-4.334V135.4c0,2.24,1,3.42,2.8,3.42,1.769,0,2.743-1.18,2.743-3.42v-4.012c0-2.24-.974-3.42-2.743-3.42-1.8,0-2.8,1.18-2.8,3.42" transform="translate(-13814.73 -2495.974)" fill="#fff"></path><path id="Path_286" data-name="Path 286" d="M102.086,136.821v-7.993h-.649a.925.925,0,0,1-.916-.944v-1.062a.925.925,0,0,1,.916-.942h.827l.294-3.186a1.08,1.08,0,0,1,1.062-.943h1.445a.931.931,0,0,1,.945.943v3.186h3.3a.931.931,0,0,1,.945.942v1.062a.932.932,0,0,1-.945.944h-3.3v7.962c0,1.948.737,2.832,2.42,2.832a8.881,8.881,0,0,0,1.267-.091.721.721,0,0,1,.855.739v1.267a1.1,1.1,0,0,1-.943,1.062,13.263,13.263,0,0,1-1.858.118c-3.895,0-5.665-2.034-5.665-5.9" transform="translate(-13811.763 -2496.717)" fill="#fff"></path><path id="Path_287" data-name="Path 287" d="M111.486,142.679a.95.95,0,0,1-.944-.945V129.085l-.5-.029a.8.8,0,0,1-.8-.887v-1.149a.82.82,0,0,1,.856-.855h3.422a.931.931,0,0,1,.945.943v14.624a.932.932,0,0,1-.945.945Zm.855-18.107c-1.327,0-2.213-.531-2.213-1.975,0-1.475.886-2.034,2.213-2.034,1.386,0,2.3.56,2.3,2.034,0,1.444-.915,1.975-2.3,1.975" transform="translate(-13809.659 -2497.003)" fill="#fff"></path><path id="Path_288" data-name="Path 288" d="M122.862,141.91c-4.16,0-6.727-2.331-6.727-6.194v-4.659c0-3.862,2.567-6.191,6.727-6.191,4.189,0,6.608,2.24,6.608,5.513a.9.9,0,0,1-.885.917h-2.124a.831.831,0,0,1-.886-.917c0-1.356-.855-2.388-2.713-2.388-1.8,0-2.8,1.18-2.8,3.42v3.951c0,2.242,1,3.421,2.8,3.421,1.888,0,2.713-1.062,2.713-2.389a.83.83,0,0,1,.886-.913h2.094a.883.883,0,0,1,.915.913c0,3.157-2.419,5.517-6.608,5.517" transform="translate(-13807.997 -2495.968)" fill="#fff"></path><path id="Path_289" data-name="Path 289" d="M135.707,139.06c1.741,0,2.567-.855,2.567-2.034,0-1.535-1.712-1.975-4.041-2.361-2.656-.469-4.986-1.681-4.986-4.687v-.444c0-2.8,2.064-4.716,6.225-4.716,4.335,0,6.224,2.5,6.224,4.749a.774.774,0,0,1-.825.824h-1.977c-.532,0-.855-.236-.855-.765,0-.768-.71-1.888-2.567-1.888-1.623,0-2.3.884-2.3,2.036,0,1.386,1.21,1.826,3.452,2.24,2.892.531,5.517,1.533,5.517,4.6v.559c0,2.771-2.271,4.806-6.431,4.806-4.247,0-6.666-2.27-6.666-4.777a.774.774,0,0,1,.825-.826h2.007c.53,0,.884.238.884.768,0,.856,1.062,1.917,2.95,1.917" transform="translate(-13804.886 -2495.979)" fill="#fff"></path><path id="Path_290" data-name="Path 290" d="M149.423,142.392a.932.932,0,0,1-.943-.945V122.694a.931.931,0,0,1,.943-.943h6.992c4.4,0,7.11,2.6,7.11,6.694v1.325c0,4.1-2.714,6.694-7.11,6.694h-3.835v4.983a.926.926,0,0,1-.915.945Zm3.157-9.259h3.835c1.947,0,3.01-1.3,3.01-3.717V128.8c0-2.418-1.062-3.687-3.01-3.687h-3.835Z" transform="translate(-13800.198 -2496.717)" fill="#fff"></path><path id="Path_291" data-name="Path 291" d="M171.089,125.578V127.5a.7.7,0,0,1-.767.736,4.2,4.2,0,0,0-3.423,1.858V140.7a.931.931,0,0,1-.943.944h-2.037a.949.949,0,0,1-.943-.944V126.079a.949.949,0,0,1,.943-.941h1.505a1.113,1.113,0,0,1,1.092.913l.118,1a5.133,5.133,0,0,1,3.716-2.212.669.669,0,0,1,.738.737" transform="translate(-13796.703 -2495.974)" fill="#fff"></path><path id="Path_292" data-name="Path 292" d="M177.285,141.945c-4.16,0-6.727-2.359-6.727-6.224v-4.659c0-3.86,2.567-6.221,6.727-6.221,4.1,0,6.666,2.361,6.666,6.221v2.125a.918.918,0,0,1-.913.913h-8.556v1.5c0,2.24,1,3.244,2.8,3.244,1.976,0,2.685-1.209,2.685-2.064,0-.531.294-.8.855-.8h2.213a.806.806,0,0,1,.825.883c0,2.242-2.271,5.074-6.578,5.074m-2.832-10.706v.414l5.6-.089v-.383c0-2.123-.945-3.244-2.773-3.244-1.8,0-2.832,1.09-2.832,3.3" transform="translate(-13794.875 -2495.974)" fill="#fff"></path><path id="Path_293" data-name="Path 293" d="M190.569,141.91c-4.16,0-6.727-2.331-6.727-6.194v-4.659c0-3.862,2.567-6.191,6.727-6.191,4.189,0,6.609,2.24,6.609,5.513a.9.9,0,0,1-.886.917h-2.124a.831.831,0,0,1-.886-.917c0-1.356-.855-2.388-2.713-2.388-1.8,0-2.8,1.18-2.8,3.42v3.951c0,2.242,1,3.421,2.8,3.421,1.888,0,2.713-1.062,2.713-2.389a.83.83,0,0,1,.886-.913h2.094a.884.884,0,0,1,.916.913c0,3.157-2.42,5.517-6.609,5.517" transform="translate(-13791.672 -2495.968)" fill="#fff"></path><path id="Path_294" data-name="Path 294" d="M198.395,142.679a.95.95,0,0,1-.944-.945V129.085l-.5-.029a.8.8,0,0,1-.8-.887v-1.149a.82.82,0,0,1,.856-.855h3.422a.931.931,0,0,1,.945.943v14.624a.932.932,0,0,1-.945.945Zm.855-18.107c-1.327,0-2.213-.531-2.213-1.975,0-1.475.886-2.034,2.213-2.034,1.386,0,2.3.56,2.3,2.034,0,1.444-.915,1.975-2.3,1.975" transform="translate(-13788.704 -2497.003)" fill="#fff"></path><path id="Path_295" data-name="Path 295" d="M204.13,141.649a.951.951,0,0,1-.945-.945V126.079a.95.95,0,0,1,.945-.943h1.594a1.078,1.078,0,0,1,1.061.943l.06.62a5.615,5.615,0,0,1,4.071-1.858c3.865,0,5.281,2.034,5.281,5.6V140.7a.949.949,0,0,1-.943.945h-2.037a.932.932,0,0,1-.943-.945V130.8c0-1.887-.56-2.713-2.271-2.713a4.084,4.084,0,0,0-2.892,1.562V140.7a.932.932,0,0,1-.945.945Z" transform="translate(-13787.008 -2495.974)" fill="#fff"></path><path id="Path_296" data-name="Path 296" d="M223.008,141.91c-4.16,0-6.727-2.331-6.727-6.194v-4.659c0-3.862,2.567-6.191,6.727-6.191,4.189,0,6.608,2.24,6.608,5.513a.9.9,0,0,1-.885.917h-2.124a.831.831,0,0,1-.886-.917c0-1.356-.855-2.388-2.713-2.388-1.8,0-2.8,1.18-2.8,3.42v3.951c0,2.242,1,3.421,2.8,3.421,1.888,0,2.713-1.062,2.713-2.389a.83.83,0,0,1,.886-.913H228.7a.883.883,0,0,1,.915.913c0,3.157-2.419,5.517-6.608,5.517" transform="translate(-13783.851 -2495.968)" fill="#fff"></path><path id="Path_297" data-name="Path 297" d="M230.036,136.821v-7.993h-.649a.926.926,0,0,1-.916-.944v-1.062a.925.925,0,0,1,.916-.942h.827l.294-3.186a1.08,1.08,0,0,1,1.062-.943h1.445a.93.93,0,0,1,.944.943v3.186h3.3a.931.931,0,0,1,.945.942v1.062a.932.932,0,0,1-.945.944h-3.3v7.962c0,1.948.737,2.832,2.42,2.832a8.882,8.882,0,0,0,1.267-.091.72.72,0,0,1,.855.739v1.267a1.1,1.1,0,0,1-.943,1.062,13.262,13.262,0,0,1-1.858.118c-3.895,0-5.664-2.034-5.664-5.9" transform="translate(-13780.911 -2496.717)" fill="#fff"></path><path id="Path_298" data-name="Path 298" d="M.739,135.988V130.8c0-3.894,1.505-5.957,5.37-5.957A5.925,5.925,0,0,1,10.3,126.7l.089-.649a1.193,1.193,0,0,1,1.121-.913h1.534a.925.925,0,0,1,.913.943V140.7a.925.925,0,0,1-.913.945H11.478a1.109,1.109,0,0,1-1.091-.914l-.089-.649a5.978,5.978,0,0,1-4.189,1.858c-3.865,0-5.37-2.064-5.37-5.957m3.924-4.9v4.6c0,2.094.619,3.009,2.331,3.009a4.335,4.335,0,0,0,3.039-1.563v-7.49a4.4,4.4,0,0,0-3.039-1.563c-1.712,0-2.331.914-2.331,3.007" transform="translate(-13835.822 -2495.974)" fill="#fff"></path><path id="Path_299" data-name="Path 299" d="M15.158,141.649a.951.951,0,0,1-.944-.945V126.079a.95.95,0,0,1,.944-.943h1.594a1.078,1.078,0,0,1,1.061.943l.06.62a5.615,5.615,0,0,1,4.071-1.858c3.865,0,5.281,2.034,5.281,5.6V140.7a.95.95,0,0,1-.943.945H24.245a.932.932,0,0,1-.943-.945V130.8c0-1.887-.56-2.713-2.271-2.713a4.084,4.084,0,0,0-2.892,1.562V140.7a.932.932,0,0,1-.944.945Z" transform="translate(-13832.572 -2495.974)" fill="#fff"></path><path id="Path_300" data-name="Path 300" d="M39.683,120.563a.927.927,0,0,1,.913.944v20.227a.925.925,0,0,1-.913.945H38.118a1.109,1.109,0,0,1-1.09-.914l-.089-.649a5.978,5.978,0,0,1-4.189,1.858c-3.865,0-5.37-2.064-5.37-5.957v-5.189c0-3.894,1.505-5.957,5.37-5.957a5.752,5.752,0,0,1,3.924,1.592v-5.956a.951.951,0,0,1,.943-.944ZM31.3,132.121v4.6c0,2.094.619,3.009,2.331,3.009a4.335,4.335,0,0,0,3.04-1.563v-7.49a4.4,4.4,0,0,0-3.04-1.563c-1.712,0-2.331.914-2.331,3.007" transform="translate(-13829.398 -2497.003)" fill="#fff"></path><path id="Path_301" data-name="Path 301" d="M27.027,77.883a15.828,15.828,0,1,1,0-22.379,15.839,15.839,0,0,1,0,22.379" transform="translate(-13836 -2513.765)" fill="#306c75"></path><path id="Path_302" data-name="Path 302" d="M82.533,66.694A15.832,15.832,0,1,1,66.7,50.87,15.828,15.828,0,0,1,82.533,66.694" transform="translate(-13823.734 -2513.765)" fill="#306c75"></path><path id="Path_303" data-name="Path 303" d="M109.959,77.883a15.828,15.828,0,1,1,0-22.379,15.839,15.839,0,0,1,0,22.379" transform="translate(-13816.003 -2513.765)" fill="#306c75"></path><path id="Path_304" data-name="Path 304" d="M165.465,66.694a15.831,15.831,0,1,1-15.83-15.824,15.827,15.827,0,0,1,15.83,15.824" transform="translate(-13803.737 -2513.765)" fill="#306c75"></path><path id="Path_305" data-name="Path 305" d="M254.914,93.771a15.828,15.828,0,1,0,22.39,0,15.82,15.82,0,0,0-22.39,0" transform="translate(-13775.653 -2504.561)" fill="#306c75"></path><path id="Path_306" data-name="Path 306" d="M266.059,0A15.824,15.824,0,1,0,281.89,15.824,15.828,15.828,0,0,0,266.059,0" transform="translate(-13775.665 -2526)" fill="#306c75"></path><path id="Path_307" data-name="Path 307" d="M199.622,66.694A15.832,15.832,0,1,1,183.791,50.87a15.828,15.828,0,0,1,15.832,15.824" transform="translate(-13795.502 -2513.765)" fill="#306c75"></path><path id="Path_308" data-name="Path 308" d="M234.661,0a15.824,15.824,0,1,1-15.832,15.824A15.828,15.828,0,0,1,234.661,0" transform="translate(-13783.236 -2526)" fill="#306c75"></path><path id="Path_309" data-name="Path 309" d="M194.986,27.013a15.828,15.828,0,1,1,0-22.379,15.839,15.839,0,0,1,0,22.379" transform="translate(-13795.502 -2526)" fill="#306c75"></path><path id="Path_310" data-name="Path 310" d="M281.89,66.775a15.832,15.832,0,1,1-15.832-15.824A15.828,15.828,0,0,1,281.89,66.775" transform="translate(-13775.665 -2513.745)" fill="#306c75"></path><path id="Path_311" data-name="Path 311" d="M160.829,27.013a15.828,15.828,0,1,1,0-22.379,15.839,15.839,0,0,1,0,22.379" transform="translate(-13803.737 -2526)" fill="#306c75"></path><path id="Path_312" data-name="Path 312" d="M326.708,0h-.252c.05,0,.1.006.148.006s.069,0,.1,0m0,31.644c-.035,0-.07,0-.1,0s-.1.006-.148.006h.252Z" transform="translate(-13757.285 -2526)" fill="#60aebe"></path><path id="Path_313" data-name="Path 313" d="M318.337,4.635a15.828,15.828,0,1,0,22.39,0,15.82,15.82,0,0,0-22.39,0" transform="translate(-13760.36 -2526)" fill="#306c75"></path><path id="Path_314" data-name="Path 314" d="M183.791,28.58a15.881,15.881,0,0,0,3.023-.29,15.881,15.881,0,0,1-3.023.29m0,0a15.827,15.827,0,0,1-15.832-15.824V75.861a15.832,15.832,0,0,1,31.663,0V28.58Z" transform="translate(-13795.502 -2522.932)" fill="#468f9a"></path><path id="Path_315" data-name="Path 315" d="M228.019,15.824A15.828,15.828,0,0,1,243.851,0H180.715a15.824,15.824,0,1,1,0,31.648h63.136a15.828,15.828,0,0,1-15.832-15.824" transform="translate(-13792.426 -2526)" fill="#60aebe"></path><path id="Path_316" data-name="Path 316" d="M145.168,53.128v-38.2A15.767,15.767,0,0,1,149.8,3.737L86.669,66.842a15.828,15.828,0,1,1,22.39,22.378Z" transform="translate(-13815.103 -2525.101)" fill="#468f9a"></path><path id="Path_317" data-name="Path 317" d="M160.829,23.945A15.832,15.832,0,0,1,133.8,12.756V75.861a15.832,15.832,0,0,1,31.663,0v-63.1a15.769,15.769,0,0,1-4.637,11.187" transform="translate(-13803.737 -2522.932)" fill="#60aebe"></path><path id="Path_318" data-name="Path 318" d="M3.736,66.841A15.828,15.828,0,0,1,26.126,89.22L62.235,53.127v-38.2A15.769,15.769,0,0,1,66.872,3.736Z" transform="translate(-13835.1 -2525.101)" fill="#60aebe"></path><path id="Path_319" data-name="Path 319" d="M341.749,0H263.033V0a15.82,15.82,0,0,1,0,31.641v0h78.716a15.824,15.824,0,1,1,0-31.648" transform="translate(-13772.577 -2526)" fill="#60aebe"></path><path id="Path_320" data-name="Path 320" d="M345.363,66.775a15.832,15.832,0,1,1-15.832-15.824,15.828,15.828,0,0,1,15.832,15.824" transform="translate(-13760.36 -2513.745)" fill="#306c75"></path><path id="Path_321" data-name="Path 321" d="M315.6,20.269a15.656,15.656,0,0,0,1.484,2.253,15.759,15.759,0,0,1-1.484-2.253m29.471-4.491a15.837,15.837,0,0,1-15.541,12.8H313.7V60.136h16.083v0c-.035,0-.068,0-.1,0a15.819,15.819,0,0,1,15.679,15.717h.006V12.756a15.863,15.863,0,0,1-.29,3.022" transform="translate(-13760.36 -2522.932)" fill="#468f9a"></path><path id="Path_322" data-name="Path 322" d="M266.123,60.14h0m0-31.56v0h.005c-.022,0-.045,0-.067,0a15.828,15.828,0,0,1-15.832-15.824V75.861h.005a15.825,15.825,0,0,1,15.827-15.724l.062,0v0h15.77V28.58Z" transform="translate(-13775.665 -2522.932)" fill="#468f9a"></path><path id="Path_323" data-name="Path 323" d="M250.227,66.675v.1c0-.033.005-.067.005-.1Zm94.861-15.722h-.252c.05,0,.1.006.148.007s.068-.006.1-.006m-.252,0H266.121v0A15.83,15.83,0,0,1,281.809,68.39c-.021.213-.066.421-.1.631-.045.313-.081.63-.144.938-.053.265-.133.522-.2.783-.063.243-.114.492-.189.731-.1.306-.215.6-.328.9-.07.184-.127.373-.2.555-.15.355-.325.7-.5,1.037-.057.113-.1.232-.164.342-.2.367-.422.721-.649,1.069-.048.076-.091.158-.14.232-.248.367-.516.718-.792,1.062-.041.05-.076.1-.117.154q-.475.577-1,1.107l-.014.015A15.793,15.793,0,0,1,266.126,82.6c-.022,0-.045,0-.067,0a15.828,15.828,0,0,1-15.832-15.824v47.372h.062a15.827,15.827,0,0,1,31.6-1.3V82.6h62.946a15.824,15.824,0,1,1,0-31.648m.252,31.646c-.036,0-.069,0-.1,0s-.1.007-.148.007h.252Z" transform="translate(-13775.665 -2513.745)" fill="#60aebe"></path><path id="Path_324" data-name="Path 324" d="M77.9,27.013a15.828,15.828,0,1,1,0-22.379,15.839,15.839,0,0,1,0,22.379" transform="translate(-13823.734 -2526)" fill="#306c75"></path><path id="Path_325" data-name="Path 325" d="M55.507,23.945A15.769,15.769,0,0,1,50.87,12.756V75.861a15.832,15.832,0,0,1,31.663,0V12.756A15.832,15.832,0,0,1,55.507,23.945" transform="translate(-13823.734 -2522.932)" fill="#468f9a"></path></g></svg> 