<?xml version="1.0" encoding="UTF-8"?>
<svg xmlns="http://www.w3.org/2000/svg" width="210" height="54" viewBox="0 0 210 54" fill="none">
  <g clip-path="url(#clip0_2248_1379)">
    <path d="M34.7135 35.7365C35.3022 36.1966 35.8086 35.9489 35.8321 35.5477C35.8557 35.1466 35.5848 35.0876 35.208 35.1466H35.1021C34.9013 35.2418 34.715 35.3649 34.5486 35.5123C34.5961 35.5814 34.6514 35.6448 34.7135 35.7011M18.2281 35.1112C17.8513 35.0522 17.604 35.2528 17.6158 35.5123C17.6276 35.7719 18.1339 36.1612 18.7227 35.7011C18.7847 35.6448 18.84 35.5814 18.8875 35.5123C18.7248 35.3658 18.5425 35.2427 18.3459 35.1466H18.2281M36.1147 31.6072C36.1091 32.1479 35.9263 32.6717 35.5944 33.0981C35.2624 33.5245 34.7998 33.8297 34.2778 33.9668C34.2778 34.3045 34.3173 34.6411 34.3955 34.9696L34.5251 34.8752L34.6781 34.7809H34.8077H34.9725H35.1374C36.1265 34.7809 36.1618 35.4298 36.1736 35.6893C36.1923 35.8176 36.1815 35.9485 36.1419 36.072C36.1023 36.1955 36.0351 36.3082 35.9453 36.4016C35.8555 36.495 35.7455 36.5665 35.6239 36.6108C35.5022 36.655 35.372 36.6707 35.2434 36.6568C35.0114 36.6621 34.7819 36.6087 34.576 36.5014C34.3702 36.3942 34.1947 36.2366 34.0658 36.0433L33.8421 36.2202C33.9245 36.5742 33.9599 36.8455 33.9599 36.8455C34.0175 37.2491 34.1202 37.6448 34.266 38.0253C34.6428 39.0046 33.9716 38.9692 33.9716 38.9692C33.3475 38.9692 33.5124 38.1315 33.5124 38.1315C33.5444 37.9283 33.5444 37.7213 33.5124 37.518C33.4864 37.1981 33.4272 36.8818 33.3358 36.5742C33.2264 36.6428 33.1073 36.6945 32.9825 36.7276C32.5821 36.8101 31.4635 36.7865 31.3811 35.7955C31.3717 35.6427 31.3958 35.4897 31.4517 35.3472C31.5388 35.1794 31.6677 35.037 31.8259 34.9338C31.9841 34.8306 32.1662 34.7701 32.3546 34.7583C32.543 34.7464 32.7312 34.7835 32.9011 34.866C33.0709 34.9485 33.2166 35.0736 33.324 35.2292C33.4226 35.3816 33.5054 35.5437 33.5713 35.7129L33.7597 35.5831C33.6197 35.1722 33.5403 34.7429 33.5242 34.3089H33.4535C32.9616 34.3089 32.4808 34.1626 32.0719 33.8886C31.6631 33.6145 31.3447 33.225 31.157 32.7694C30.9693 32.3139 30.9207 31.8127 31.0176 31.3295C31.1144 30.8463 31.3522 30.4028 31.7009 30.0551C32.0495 29.7074 32.4933 29.4713 32.9761 29.3765C33.4588 29.2818 33.9587 29.3328 34.4125 29.523C34.8663 29.7133 35.2535 30.0342 35.5251 30.4451C35.7967 30.856 35.9404 31.3385 35.9381 31.8313M34.6899 40.4086C34.6899 40.4086 34.5957 40.6917 34.372 40.5737C34.3421 40.6283 34.292 40.6688 34.2324 40.6865C34.1729 40.7042 34.1088 40.6976 34.0541 40.6681C34.0541 40.6681 33.8068 40.8333 33.7126 40.6681C33.6184 40.5029 33.4417 40.7861 33.3711 40.5501C33.331 40.5535 33.2907 40.5483 33.2528 40.5349C33.2149 40.5214 33.1804 40.5 33.1514 40.4721C33.1224 40.4442 33.0997 40.4104 33.0848 40.373C33.0699 40.3356 33.0631 40.2954 33.0649 40.2552C33.2236 40.0856 33.3371 39.8787 33.3946 39.6535C33.3734 39.4749 33.4062 39.294 33.4888 39.1344C33.5382 39.2119 33.609 39.2733 33.6927 39.311C33.7764 39.3487 33.8692 39.3611 33.9599 39.3467C34.053 39.3442 34.1436 39.3165 34.2224 39.2667C34.3011 39.2169 34.365 39.1467 34.4073 39.0636C34.6101 39.25 34.7325 39.508 34.7488 39.7833C34.7663 39.9387 34.8276 40.086 34.9254 40.208C34.9254 40.208 34.9254 40.4558 34.6899 40.4204M33.218 48.0773C32.9476 47.981 32.6725 47.8983 32.3937 47.8296C32.8972 47.3692 33.362 46.8681 33.7832 46.3312C33.5224 46.5182 33.2233 46.6448 32.9077 46.702C32.5921 46.7591 32.2677 46.7453 31.9581 46.6616L32.2995 45.9655C31.5813 46.461 31.6519 45.47 31.6519 45.47C32.2878 45.47 32.3231 45.0216 32.3231 45.0216C32.3231 45.0216 31.7932 45.3284 31.5459 45.1632C31.4087 45.0515 31.32 44.8908 31.2986 44.7149C31.5029 44.6415 31.7176 44.6016 31.9345 44.5969C32.513 44.6397 33.0735 44.8175 33.5713 45.116L34.1483 46.5082C33.8867 47.0586 33.5753 47.5839 33.218 48.0773ZM26.824 53.3629C24.3599 52.327 22.1588 50.7506 20.383 48.7498C20.6538 49.092 21.1601 48.679 21.4663 48.6437C22.161 48.5729 22.5378 49.6701 23.8214 49.6701C25.1049 49.6701 25.4463 48.6672 26.5885 48.6672C27.7307 48.6672 28.3077 49.6229 29.3911 49.5993C30.4744 49.5757 31.2751 48.7852 31.7461 48.6908C32.0429 48.6559 32.3437 48.7007 32.6175 48.8206C31.0699 50.78 29.0749 52.3379 26.8005 53.3629M18.8993 46.7206L19.7353 44.8329C20.1582 44.633 20.6056 44.4901 21.0659 44.4081C21.6288 44.4114 22.1718 44.6165 22.5967 44.9862L22.2081 45.5761C21.9119 46.2037 21.7285 46.8786 21.6665 47.57C21.0648 47.5232 20.4596 47.5791 19.8766 47.7352C19.5723 47.3635 19.2967 46.9691 19.0524 46.5554M18.8993 40.4204C18.6756 40.5383 18.5814 40.2552 18.5814 40.2552C18.5504 40.2628 18.5181 40.263 18.4872 40.2556C18.4562 40.2482 18.4274 40.2335 18.4032 40.2127C18.379 40.192 18.3601 40.1657 18.3481 40.1362C18.3361 40.1066 18.3313 40.0746 18.3341 40.0428C18.4386 39.9238 18.5043 39.7756 18.5225 39.6181C18.538 39.3452 18.6558 39.0881 18.8522 38.8984C18.8974 38.9817 18.9636 39.0516 19.0441 39.1013C19.1247 39.151 19.2169 39.1787 19.3114 39.1816C19.402 39.1945 19.4943 39.1814 19.5777 39.1438C19.661 39.1062 19.7321 39.0456 19.7824 38.9692C19.8595 39.1307 19.892 39.3099 19.8766 39.4883C19.9313 39.7122 20.0405 39.9189 20.1946 40.09C20.1964 40.1302 20.1896 40.1704 20.1747 40.2078C20.1598 40.2452 20.1371 40.279 20.1081 40.3069C20.0792 40.3348 20.0446 40.3562 20.0067 40.3697C19.9688 40.3832 19.9285 40.3884 19.8884 40.385C19.8178 40.6209 19.5469 40.5029 19.5469 40.5029H19.2055C19.1792 40.5173 19.1504 40.5262 19.1207 40.5292C19.091 40.5322 19.061 40.5292 19.0325 40.5204C19.004 40.5116 18.9775 40.4972 18.9546 40.478C18.9317 40.4588 18.9129 40.4352 18.8993 40.4086M17.1212 35.5123C17.1212 35.2528 17.1212 34.5921 18.1575 34.6039H18.3105H18.4636H18.6049C18.6599 34.6283 18.7114 34.6601 18.758 34.6983L18.8993 34.7927C18.9728 34.4635 19.0083 34.1271 19.0053 33.7898C18.4053 33.6185 17.8927 33.2253 17.5711 32.6898C17.2495 32.1542 17.1428 31.5163 17.2727 30.905C17.4026 30.2936 17.7594 29.7546 18.2709 29.3967C18.7823 29.0389 19.4103 28.889 20.0279 28.9774C20.6454 29.0658 21.2064 29.3859 21.5974 29.8729C21.9884 30.3599 22.1802 30.9775 22.1341 31.6008C22.088 32.2241 21.8073 32.8066 21.3489 33.2305C20.8905 33.6544 20.2885 33.888 19.6647 33.8842H19.594C19.6549 34.3891 19.623 34.901 19.4998 35.3944L19.6882 35.5241C19.7629 35.3569 19.8494 35.1952 19.9473 35.0404C20.0547 34.8849 20.2003 34.7598 20.3702 34.6773C20.54 34.5948 20.7283 34.5576 20.9167 34.5695C21.1051 34.5814 21.2872 34.6418 21.4454 34.745C21.6036 34.8482 21.7325 34.9906 21.8196 35.1584C21.8514 35.3061 21.8514 35.459 21.8196 35.6067C21.7371 36.5978 20.642 36.6214 20.2299 36.5388C20.1021 36.5038 19.9793 36.4523 19.8649 36.3854C19.7847 36.6957 19.7257 37.011 19.6882 37.3293C19.6629 37.533 19.6629 37.739 19.6882 37.9428C19.6882 37.9428 19.8649 38.8394 19.2408 38.7804C19.2408 38.7804 18.5696 38.7804 18.9346 37.8366C19.0806 37.4552 19.1871 37.0599 19.2526 36.6568C19.2754 36.4456 19.3148 36.2365 19.3703 36.0315L19.1348 35.8545C19.0076 36.0494 18.8324 36.2082 18.6262 36.3157C18.42 36.4231 18.1896 36.4756 17.9573 36.468C17.8286 36.482 17.6984 36.4662 17.5768 36.422C17.4551 36.3778 17.3452 36.3062 17.2554 36.2128C17.1656 36.1194 17.0983 36.0067 17.0587 35.8832C17.0191 35.7598 17.0083 35.6289 17.027 35.5005M22.9147 44.2783C22.8076 44.207 22.7088 44.1239 22.6203 44.0306C22.1816 43.5947 21.5896 43.3489 20.9717 43.3463C20.6748 43.3868 20.3852 43.4702 20.1121 43.5941L21.4192 40.2788C21.6685 40.2403 21.9235 40.2646 22.161 40.3496C22.6438 40.6445 22.95 41.2226 23.8331 41.2226C24.116 41.2109 24.3931 41.1385 24.6456 41.0103C24.1595 42.1456 23.5805 43.2386 22.9147 44.2783ZM23.6683 45.5172C24.568 45.0289 25.5148 44.6336 26.4943 44.3373C26.7867 44.361 27.0731 44.4328 27.3422 44.5497C26.1994 44.9637 25.1592 45.6196 24.2924 46.4728C24.2047 46.5612 24.0999 46.6309 23.9846 46.6775C23.8692 46.7242 23.7456 46.7468 23.6212 46.7442C23.5259 46.5432 23.4765 46.3236 23.4765 46.1012C23.4765 45.8787 23.5259 45.6591 23.6212 45.4582M31.1102 46.402C30.1747 47.1599 29.092 47.7144 27.9309 48.0301C28.4591 47.8002 28.9639 47.5197 29.4382 47.1925C29.6548 46.9371 29.9328 46.7414 30.246 46.6237C30.5592 46.506 30.8972 46.4703 31.228 46.52M30.3802 44.0778C30.2249 43.8122 30.0065 43.5893 29.7443 43.4289L28.6492 44.184C27.9953 43.831 27.293 43.5766 26.565 43.4289C25.8013 43.5921 25.0668 43.8706 24.3866 44.2547L26.0233 41.199C26.1171 40.9404 26.1957 40.6764 26.2588 40.4086C26.4077 40.3957 26.5574 40.3957 26.7063 40.4086C27.8838 40.4086 28.2018 41.258 29.0613 41.258C29.9209 41.258 30.2389 40.2316 31.5695 40.2316H31.6637L33.1474 43.653C32.8062 43.4977 32.4384 43.4096 32.064 43.3935C31.4602 43.4634 30.8864 43.6958 30.4037 44.066M24.0215 37.2113C24.8929 37.2113 25.4463 36.232 26.5768 36.232C27.7072 36.232 28.0016 37.0461 28.767 37.0461C29.2632 36.9719 29.7351 36.782 30.1447 36.4916L31.2633 39.1344C30.1682 39.2877 29.8738 40.1372 29.0849 40.1372C28.296 40.1372 27.9074 39.2995 26.7298 39.2995H26.4119C26.4325 38.9484 26.3373 38.6002 26.1411 38.3085C25.4934 37.459 24.4925 38.0725 24.2924 38.1905C24.2244 38.2423 24.1682 38.3081 24.1276 38.3833C24.087 38.4586 24.0629 38.5417 24.0569 38.627L23.2679 39.4765C23.6679 39.5145 24.0712 39.458 24.4454 39.3113C24.5514 39.4293 25.2344 39.3113 25.2344 39.3113C25.2443 39.4646 25.2443 39.6183 25.2344 39.7715C24.877 39.9942 24.4749 40.1352 24.0569 40.1844C23.1737 40.1844 22.8793 39.5945 22.3848 39.3113C22.2822 39.2601 22.1696 39.232 22.0551 39.2288L23.0324 36.7511C23.3548 37.0011 23.7443 37.1489 24.1511 37.1759M24.3983 33.2943C24.4983 33.3392 24.6067 33.3624 24.7163 33.3624C24.8259 33.3624 24.9342 33.3392 25.0342 33.2943C25.4829 32.8287 26.0859 32.5434 26.7298 32.492C27.2282 32.4803 27.7109 32.667 28.0722 33.0111C28.3295 33.1539 28.6149 33.2385 28.9083 33.2589L29.9445 35.7129C29.6281 35.9126 29.2689 36.0339 28.8965 36.0669C28.1311 36.0669 27.8367 35.2528 26.7063 35.2528C25.5759 35.2528 25.0224 36.232 24.1511 36.232C23.8685 36.2225 23.5931 36.1413 23.3503 35.9961L24.3983 33.2943ZM26.5885 27.7492L28.5315 32.3504C28.371 32.3021 28.2168 32.2348 28.0722 32.1499C27.7077 31.8122 27.2261 31.6302 26.7298 31.6426C26.0859 31.6939 25.4829 31.9792 25.0342 32.4448C24.934 32.5024 24.8199 32.531 24.7045 32.5274L26.5885 27.7492ZM26.5885 22.1451C27.9074 21.7439 28.6257 19.5377 28.8141 19.1012C29.1909 18.4769 29.6079 17.8779 30.0622 17.3078C30.2389 17.0247 31.3693 15.7269 31.8756 15.137C32.0811 14.9521 32.3212 14.8099 32.582 14.7188C32.8427 14.6276 33.119 14.5893 33.3946 14.6061V24.953C32.9515 24.9787 32.5072 24.9787 32.064 24.953C31.4204 24.7216 30.8165 24.3912 30.2742 23.9738C30.0269 23.726 26.5885 22.1805 26.5885 22.1805M10.0325 22.4754L6.58237 18.523L6.9003 18.3343L7.14758 18.6882C7.43238 18.5319 7.76135 18.476 8.08167 18.5294C8.402 18.5829 8.69509 18.7427 8.91387 18.9832C9.50264 19.6439 8.91387 20.6821 8.91387 20.6821L9.16115 21.0478L11.5162 19.868L10.8686 18.877C10.5624 19.1248 10.6448 19.7972 10.6448 19.7972C9.54974 19.4197 9.46731 17.6854 9.46731 17.6854L10.0325 17.2017L9.77347 16.8005L10.1385 16.5292L10.3858 16.9067L11.057 16.5174C11.2171 17.3471 11.6682 18.092 12.3287 18.6174H11.3278L11.9401 19.6439L14.2245 18.4641L14.1303 18.2753C14.0093 18.2932 13.8863 18.2932 13.7653 18.2753C13.5874 18.2677 13.4127 18.2251 13.2513 18.1498C13.0899 18.0745 12.9449 17.968 12.8246 17.8365C12.7043 17.705 12.611 17.5511 12.5502 17.3834C12.4894 17.2158 12.4621 17.0377 12.47 16.8595C12.4689 16.6472 12.5136 16.4371 12.6009 16.2437C12.6883 16.0502 12.8164 15.878 12.9763 15.7387L12.7879 15.3494L13.2236 15.137L13.3885 15.5145C13.5085 15.4674 13.6364 15.4434 13.7653 15.4437C13.9432 15.4513 14.1178 15.494 14.2792 15.5693C14.4406 15.6445 14.5856 15.751 14.706 15.8825C14.8263 16.014 14.9195 16.168 14.9804 16.3356C15.0412 16.5033 15.0685 16.6813 15.0606 16.8595C15.0522 17.0869 14.9954 17.3098 14.8938 17.5134C14.7922 17.7169 14.6483 17.8962 14.4718 18.0393L14.6838 18.1927L16.9328 17.0129L16.6031 15.9865C16.3441 15.9865 15.9555 16.7533 15.9555 16.7533C15.9039 15.9378 15.6084 15.1567 15.1077 14.5117L16.0144 14.2639L15.826 13.674H16.2028L16.4147 14.1341L17.0153 13.9454C17.3749 14.1857 17.6531 14.53 17.813 14.9325C17.9728 15.3349 18.0067 15.7766 17.9102 16.1988C17.6982 15.7859 16.9799 15.8331 16.9799 15.8331L17.3685 16.8949L19.7236 15.7741L19.6765 15.3376C19.2408 15.3376 18.8404 15.1488 18.6049 14.3701C18.3694 13.5914 19.2408 12.9189 19.2408 12.9189V12.4706H19.594L20.383 17.3668L10.0325 22.4754ZM17.0977 5.80468L17.1683 6.64234L16.8739 6.80752H16.1439C16.0522 6.65037 16.0073 6.47027 16.0144 6.2884C16.0144 6.01704 17.0977 5.80468 17.0977 5.80468ZM19.4527 11.7037C19.3173 11.8444 19.1524 11.9532 18.9699 12.0223C18.6167 12.1875 18.7344 12.27 18.7344 12.27C18.6806 12.2753 18.6262 12.2685 18.5753 12.2502C18.5244 12.2318 18.4782 12.2023 18.4401 12.1639C18.3105 12.0459 18.2517 11.3852 18.2517 11.3852C18.1457 11.8099 18.0397 11.9751 17.8042 11.9397C17.5687 11.9043 17.498 11.3026 17.498 11.3026C17.498 11.3026 17.2272 11.8099 16.8739 11.6683C16.5207 11.5268 16.4854 10.7953 16.4854 10.7953C17.5066 10.747 18.5081 11.0885 19.2879 11.7509M34.4309 26.1564C34.5604 25.5075 34.2425 25.4014 34.2425 25.4014V14.4645C35.679 13.9808 35.42 13.2847 35.42 13.2847C36.0323 12.5532 35.5613 12.2936 35.5613 12.2936C36.1265 11.22 35.3258 11.0312 35.3258 11.0312C35.3278 10.9048 35.3034 10.7792 35.2543 10.6627C35.2051 10.5462 35.1321 10.4413 35.0401 10.3547C34.9481 10.268 34.8391 10.2016 34.72 10.1597C34.6009 10.1177 34.4743 10.1011 34.3484 10.111V7.37383H36.1147L37.6808 1.17981L35.7732 3.53944L36.2325 3.7636L35.5848 6.12322H34.2071V3.53944H34.6664L33.795 0L32.853 3.59843H33.2298V6.05244H31.7932L31.2751 3.69281L31.7932 3.40966L29.9209 1.06183L31.4046 7.42102H33.2651V9.99301C32.0876 9.70985 30.8041 12.1403 30.8041 12.1403C30.0269 12.3172 27.3775 14.901 25.988 16.01C24.5985 17.1191 24.0804 17.8506 23.5505 18.2163C23.0206 18.582 22.5261 18.2163 22.0668 18.0747C21.6076 17.9331 20.6538 17.6972 20.6538 17.6972L20.9246 17.5202L20.1828 12.1993C20.3594 12.3762 22.1375 12.9071 22.738 12.2818C22.9067 12.13 23.0391 11.942 23.1252 11.7318C23.2113 11.5216 23.249 11.2947 23.2354 11.0679C23.2218 10.8411 23.1573 10.6203 23.0468 10.4219C22.9362 10.2235 22.7823 10.0527 22.5967 9.92222C22.738 12.0813 20.5596 11.102 19.2526 10.6655C18.4708 10.4094 17.6596 10.2547 16.8386 10.2054C16.9328 9.46209 17.3567 9.48569 17.3567 9.48569L17.7218 9.4385L18.0044 10.052L18.5107 9.58007H18.8051L18.9817 10.2054C19.4174 9.83963 20.7009 8.56544 20.5596 8.24689C20.4183 7.92834 20.3123 8.10531 20.7009 7.39742C21.0895 6.68953 20.8775 6.55976 20.7009 6.21761C19.9632 5.78986 19.1709 5.46441 18.3459 5.25016C16.7209 3.89338 16.085 4.16474 13.3414 3.62202C11.0334 3.1383 10.3622 0.554512 10.3034 0.56631C10.2961 0.68418 10.2961 0.802383 10.3034 0.920253C10.4918 2.41861 9.79702 1.59275 9.43198 3.06751C9.225 3.94375 9.22097 4.85584 9.42021 5.73389C8.32511 5.50972 8.12493 4.86083 8.12493 4.86083C6.54705 8.74241 8.30156 9.58007 8.855 9.67446C8.855 9.67446 8.855 9.75705 8.855 9.79244C8.05428 12.0577 6.49994 10.7835 6.49994 10.7835C7.06516 12.8364 8.48996 12.506 8.48996 12.506C8.48996 12.506 8.39576 12.7892 7.98363 14.7594C7.57149 16.7297 6.8061 16.0572 6.8061 16.0572C7.77167 17.0719 8.52529 16.305 8.52529 16.305L8.24268 17.8506L7.46552 17.9803L7.06516 17.591L5.88763 18.2635C5.88763 18.2635 9.64394 22.7468 10.1503 23.0771C10.1503 23.0771 10.1503 23.1479 10.0914 23.1833C9.07873 25.0356 8.06605 23.4901 8.06605 23.4901C8.43109 25.5901 10.009 25.2126 10.009 25.2126C8.27463 29.6702 6.97333 34.2849 6.12314 38.9928C5.01626 38.8748 4.58058 39.6063 3.1911 35.6657C1.80162 31.7251 0.412134 31.6662 0.412134 31.6662C0.412134 31.6662 1.71919 32.3976 0.730066 35.6657C-0.259056 38.9338 1.29528 40.385 1.29528 40.385C-0.094202 41.7889 0.847819 45.7295 0.824268 46.6144C0.671102 47.563 0.393965 48.4872 0 49.3633C2.22552 48.1835 2.69653 46.52 3.83874 44.2783C4.98094 42.0367 5.88763 42.2137 5.88763 42.2137C5.95718 44.5446 6.60032 46.8223 7.7599 48.8442C8.4304 50.1492 9.44153 51.2477 10.6857 52.0226C11.9298 52.7975 13.3603 53.22 14.8251 53.2449C17.8866 53.4219 20.0179 49.965 20.0179 49.965C19.2074 49.0737 18.5076 48.0873 17.9337 47.0273C17.8282 47.5276 17.5795 47.9862 17.2179 48.3471C16.8564 48.708 16.3978 48.9555 15.8981 49.0594C15.3984 49.1632 14.8794 49.119 14.4044 48.932C13.9294 48.745 13.5191 48.4234 13.2236 48.0065C11.5044 45.7767 13.1294 41.8361 13.1294 41.8361C14.124 41.9724 15.0949 42.2464 16.0144 42.6502L15.3903 39.1108L14.7073 38.8158L15.3078 37.4V26.6166H23.8214C24.3395 26.298 25.1049 26.3452 27.248 26.2508C29.3911 26.1564 29.7443 27.3126 29.7443 27.3126H15.9202V38.5681C16.1329 42.0975 17.3597 45.49 19.4527 48.3369C21.4142 50.8608 24.0114 52.8156 26.9771 54C29.409 52.8016 31.557 51.096 33.2769 48.9976V53.1505H34.3484V47.688C37.3511 44.6441 37.6808 38.5209 37.6808 38.5209V27.2655H34.8548C34.9372 26.3216 34.4426 26.1564 34.4426 26.1564M20.5125 35.9725H20.7716H20.9011C20.957 35.9498 21.0087 35.9179 21.0542 35.8781C21.7018 35.4062 20.6303 34.4977 20.1239 35.6893C20.1001 35.7387 20.0805 35.79 20.065 35.8427C20.1574 35.9275 20.2716 35.9847 20.3948 36.0079H20.4654M32.2407 35.8663C32.2861 35.9061 32.3378 35.938 32.3937 35.9607H32.5233H32.9707C33.0893 35.9344 33.1989 35.8774 33.2887 35.7955V35.6421C32.7823 34.4623 31.7108 35.359 32.3584 35.8309" fill="white"/>
    <path d="M49.1264 52.2421V26.9941H64.5755V30.1088H53.4361V38.049H62.9741V41.1519H53.4361V52.2421H49.1264Z" fill="white"/>
    <path d="M66.9777 52.242V33.5774H70.8871V36.8809C71.5472 35.8516 72.4274 34.9821 73.4639 34.3353C74.5005 33.6885 75.6675 33.2805 76.8807 33.1409V37.3174C76.5748 37.2997 76.2681 37.2997 75.9622 37.3174C74.135 37.341 72.3911 38.0874 71.1108 39.3939V52.242H66.9777Z" fill="white"/>
    <path d="M94.8026 50.8145C92.6647 52.0778 90.2192 52.723 87.7375 52.6786C81.8499 52.6786 78.435 48.6908 78.435 43.0631C78.435 37.4354 82.05 33.1409 87.2311 33.1409C91.6469 33.1409 94.7909 36.0314 94.7909 41.5883V43.535H82.7448C82.8978 47.0391 84.7819 49.5521 88.4793 49.5521C90.2149 49.5095 91.9166 49.061 93.4485 48.2425L94.8026 50.8145ZM90.8226 41.0102C90.7402 38.0843 89.492 36.1848 87.1369 36.1848C84.7819 36.1848 83.0038 38.3792 82.8272 41.0102H90.8226Z" fill="white"/>
    <path d="M122.651 52.2421V39.2641C122.7 38.8922 122.666 38.514 122.553 38.1564C122.44 37.7988 122.25 37.4705 121.996 37.1947C121.742 36.9189 121.431 36.7024 121.084 36.5605C120.737 36.4187 120.364 36.3548 119.99 36.3736C118.129 36.5928 116.363 37.3146 114.879 38.4619C114.879 39.2641 114.879 40.0664 114.879 40.9159V52.2539H110.746V39.2759C110.795 38.904 110.762 38.5258 110.648 38.1682C110.535 37.8106 110.345 37.4823 110.091 37.2065C109.837 36.9307 109.526 36.7142 109.179 36.5723C108.833 36.4305 108.459 36.3666 108.085 36.3854C106.214 36.6059 104.436 37.3272 102.939 38.4737V52.2421H98.8062V33.5774H102.751V35.9371C104.034 34.946 106.625 33.1527 109.439 33.1527C110.475 33.0751 111.51 33.3232 112.398 33.8624C113.287 34.4017 113.985 35.2053 114.397 36.1612C115.786 35.064 118.412 33.1173 121.462 33.1173C124.017 33.1173 126.867 34.3679 126.867 39.1579V52.2421H122.651Z" fill="white"/>
    <path d="M141.739 52.2421L141.527 50.4842C140.158 51.8316 138.334 52.6149 136.416 52.6786C133.237 52.6786 130.611 50.8145 130.611 47.3695C130.611 43.2047 133.343 40.9749 140.243 40.9749C140.608 40.9749 140.973 40.9749 141.421 40.9749V38.9338C141.421 37.0697 139.89 36.2674 138.206 36.2674C136.295 36.3854 134.424 36.87 132.695 37.695L131.518 35.1348C133.827 33.8063 136.45 33.1219 139.113 33.1527C143.128 33.1527 145.578 34.9107 145.578 38.7922V52.2421H141.739ZM141.374 43.7946C140.713 43.6787 140.043 43.6156 139.372 43.6059C135.969 43.6059 134.733 44.998 134.733 46.9329C134.732 47.3218 134.813 47.7065 134.971 48.0617C135.129 48.4169 135.36 48.7347 135.649 48.9942C135.938 49.2537 136.279 49.4492 136.648 49.5677C137.018 49.6862 137.408 49.7251 137.794 49.6819C139.064 49.655 140.295 49.2437 141.327 48.5021L141.374 43.7946Z" fill="white"/>
    <path d="M162.734 52.2421V39.3939C162.787 39.0015 162.753 38.6021 162.633 38.2247C162.513 37.8472 162.312 37.501 162.043 37.211C161.773 36.921 161.443 36.6944 161.076 36.5476C160.709 36.4007 160.314 36.3373 159.92 36.3618C158.076 36.5879 156.331 37.3232 154.88 38.4855V52.2421H150.723V33.5774H154.739V35.9371C156.567 34.2885 158.891 33.2965 161.345 33.1173C163.97 33.1173 166.82 34.4387 166.82 39.2287V52.2067L162.734 52.2421Z" fill="white"/>
    <path d="M181.751 52.0179C180.514 52.2936 179.251 52.4399 177.983 52.4544C176.052 52.4544 172.802 52.1713 172.802 46.8621V36.5741H169.564V33.5774H172.778V29.8492C174.168 29.2357 175.522 28.6104 176.911 28.0205V33.5774H181.433V36.5741H176.911V46.5554C176.911 48.4549 177.418 49.5521 179.267 49.5521C180.097 49.5272 180.921 49.3923 181.716 49.1509L181.751 52.0179Z" fill="white"/>
    <path d="M185.507 52.2421V26.8525L189.629 25.5665V52.2421H185.507Z" fill="white"/>
    <path d="M209.435 50.5726C207.315 51.8277 204.891 52.4727 202.428 52.4367C196.541 52.4367 193.114 48.449 193.114 42.8213C193.114 37.1936 196.729 32.899 201.91 32.899C206.338 32.899 209.47 35.7896 209.47 41.3465V43.2932H197.389C197.53 46.8326 199.438 49.322 203.123 49.322C204.855 49.2798 206.553 48.8313 208.081 48.0124L209.435 50.5726ZM205.455 40.7684C205.384 37.8425 204.065 35.943 201.769 35.943C199.473 35.943 197.648 38.1374 197.459 40.7684H205.455Z" fill="white"/>
    <path d="M56.2857 18.5821C55.5015 18.8315 54.6828 18.955 53.86 18.9478C53.1564 18.9742 52.455 18.8521 51.8014 18.5896C51.1478 18.327 50.5565 17.9299 50.0658 17.4238C49.5752 16.9177 49.1961 16.3141 48.9531 15.6518C48.7101 14.9896 48.6087 14.2837 48.6554 13.5797C48.6246 12.876 48.7414 12.1736 48.9984 11.5179C49.2553 10.8622 49.6467 10.2678 50.1471 9.77305C50.6476 9.2783 51.246 8.89421 51.9038 8.64557C52.5616 8.39692 53.2641 8.28926 53.966 8.32953C54.7689 8.3174 55.5672 8.45338 56.3211 8.73066L55.8265 9.91048C55.2113 9.66844 54.5563 9.54437 53.8954 9.54473C51.6816 9.54473 50.3628 11.3027 50.3628 13.5679C50.3628 16.1045 51.9642 17.6382 53.8954 17.6382C54.5074 17.6448 55.1163 17.5491 55.697 17.3551L56.2857 18.5821Z" fill="white"/>
    <path d="M60.0538 18.7708V8.50647H61.7966V18.7708H60.0538Z" fill="white"/>
    <path d="M68.1788 18.7708V9.76887H65.3174V8.50647H72.8064V9.76887H69.9333V18.7708H68.1788Z" fill="white"/>
    <path d="M77.8698 18.7708V14.5117L74.6669 8.50647H76.5392L78.7883 12.978L81.0727 8.55366H82.8272L79.6243 14.5117V18.7708H77.8698Z" fill="white"/>
    <path d="M90.2692 13.6387C90.2692 12.2869 90.8051 10.9905 91.7591 10.0347C92.7131 9.07885 94.0069 8.54187 95.3561 8.54187C96.7052 8.54187 97.9991 9.07885 98.9531 10.0347C99.907 10.9905 100.443 12.2869 100.443 13.6387C100.443 14.9904 99.907 16.2868 98.9531 17.2426C97.9991 18.1985 96.7052 18.7354 95.3561 18.7354C94.0069 18.7354 92.7131 18.1985 91.7591 17.2426C90.8051 16.2868 90.2692 14.9904 90.2692 13.6387ZM98.6767 13.6387C98.6767 11.279 97.2872 9.5919 95.3443 9.5919C93.4014 9.5919 92.0237 11.3026 92.0237 13.6387C92.0237 15.9747 93.4014 17.6972 95.3796 17.6972C97.3579 17.6972 98.6767 15.9511 98.6767 13.6387Z" fill="white"/>
    <path d="M104.423 18.7708V8.50647H110.687V9.76887H106.178V12.978H110.052V14.2404H106.178V18.7472L104.423 18.7708Z" fill="white"/>
  </g>
  <defs>
    <clipPath id="clip0_2248_1379">
      <rect width="210" height="54" fill="white"/>
    </clipPath>
  </defs>
</svg>